HIERARCHY
ROOT Hips
{
  OFFSET 196.326 95.9168 97.7182
  CHANNELS 6 Xposition Yposition Zposition Zrotation Xrotation Yrotation
  JOINT LeftUpLeg
  {
    OFFSET 8.64259 1.95398 -2.38835
    CHANNELS 3 Zrotation Xrotation Yrotation
    JOINT LeftLeg
    {
      OFFSET 43.7702 0 0
      CHANNELS 3 Zrotation Xrotation Yrotation
      JOINT LeftFoot
      {
        OFFSET 40.6238 0 0
        CHANNELS 3 Zrotation Xrotation Yrotation
        JOINT LeftToeBase
        {
          OFFSET 12.7242 0 0
          CHANNELS 3 Zrotation Xrotation Yrotation
          End Site
          {
            OFFSET 0 0 0
          }
        }
      }
    }
  }
  JOINT RightUpLeg
  {
    OFFSET -8.2249 1.95398 -2.59336
    CHANNELS 3 Zrotation Xrotation Yrotation
    JOINT RightLeg
    {
      OFFSET 43.5653 0 0
      CHANNELS 3 Zrotation Xrotation Yrotation
      JOINT RightFoot
      {
        OFFSET 40.6238 0 0
        CHANNELS 3 Zrotation Xrotation Yrotation
        JOINT RightToeBase
        {
          OFFSET 12.7242 0 0
          CHANNELS 3 Zrotation Xrotation Yrotation
          End Site
          {
            OFFSET 0 0 0
          }
        }
      }
    }
  }
  JOINT Spine
  {
    OFFSET 0.165834 0.87714 6.61349
    CHANNELS 3 Zrotation Xrotation Yrotation
    JOINT Spine1
    {
      OFFSET 7.38963 1.71661e-005 0
      CHANNELS 3 Zrotation Xrotation Yrotation
      JOINT Spine2
      {
        OFFSET 11.9445 1.14441e-005 0
        CHANNELS 3 Zrotation Xrotation Yrotation
        JOINT Spine3
        {
          OFFSET 14.7254 4.19617e-005 0
          CHANNELS 3 Zrotation Xrotation Yrotation
          JOINT Spine4
          {
            OFFSET 10.9679 0 0
            CHANNELS 3 Zrotation Xrotation Yrotation
            JOINT RightShoulder
            {
              OFFSET 2.46616 -1.6653 3.69651
              CHANNELS 3 Zrotation Xrotation Yrotation
              JOINT RightArm
              {
                OFFSET 13.0012 0 0
                CHANNELS 3 Zrotation Xrotation Yrotation
                JOINT RightForeArm
                {
                  OFFSET 28.7848 1.52588e-005 0
                  CHANNELS 3 Zrotation Xrotation Yrotation
                  JOINT RightHand
                  {
                    OFFSET 26.5688 1.52588e-005 0
                    CHANNELS 3 Zrotation Xrotation Yrotation
                    End Site
                    {
                      OFFSET 0 0 0
                    }
                  }
                }
              }
            }
            JOINT LeftShoulder
            {
              OFFSET 2.38034 -1.29275 -3.75231
              CHANNELS 3 Zrotation Xrotation Yrotation
              JOINT LeftArm
              {
                OFFSET 16.3182 6.10351e-005 0
                CHANNELS 3 Zrotation Xrotation Yrotation
                JOINT LeftForeArm
                {
                  OFFSET 27.0901 0 0
                  CHANNELS 3 Zrotation Xrotation Yrotation
                  JOINT LeftHand
                  {
                    OFFSET 24.5451 1.52588e-005 0
                    CHANNELS 3 Zrotation Xrotation Yrotation
                    End Site
                    {
                      OFFSET 0 0 0
                    }
                  }
                }
              }
            }
            JOINT Neck
            {
              OFFSET 5.0226 -0.0266342 0
              CHANNELS 3 Zrotation Xrotation Yrotation
              JOINT Head
              {
                OFFSET 6.69363 2.86102e-005 0
                CHANNELS 3 Zrotation Xrotation Yrotation
                End Site
                {
                  OFFSET 0 0 0
                }
              }
            }
          }
        }
      }
    }
  }
}
MOTION
Frames:	11
Frame Time:	0.0416667
-94.7508 92.4002 -61.2181 38.8925 -59.1477 51.3117 -162.872 61.218 90.0044 -38.5299 14.8944 -7.95579 54.827 -2.29609 10.2275 62.0655 35.2917 -1.55769 179.74 1.04998 90.9352 -32.8386 4.01442 -4.93795 41.333 1.35957 1.7955 30.554 -0.575849 13.9936 1.4248 7.24743 -89.7083 12.3814 2.96989 0.243419 0.713892 2.97771 0.112341 -21.8457 2.75931 1.1254 -1.83306 2.75932 1.1254 85.9799 -41.97 -109.596 33.628 -13.791 15.8665 -22.7352 12.1962 -109.148 -20.7579 -1.51646 3.86862 -99.4267 -39.5009 60.6364 -48.4958 -5.03264 46.2933 -2.0473 -5.23082 -79.2295 27.3924 2.46361 5.21315 14.9172 3.61469 -0.230053 10.1008 3.79353 1.44274 
-87.9539 91.8312 -52.805 45.5542 -57.7645 57.7556 -161.261 55.4924 87.3726 -40.7017 14.4914 -8.00219 55.2789 -1.54908 9.51128 59.7068 35.197 3.50457 -179.267 7.27616 93.187 -53.5758 6.84645 -5.3784 37.3163 1.95331 2.55694 29.958 -0.985833 19.8167 1.02485 7.45717 -89.6461 11.9566 2.20459 0.467312 0.28749 2.22303 0.369786 -22.2595 1.96219 1.1085 -2.24683 1.96218 1.1085 83.4791 -43.919 -112.942 33.8438 -11.1893 20.7541 -17.3201 6.08111 -99.5417 -20.019 -1.47517 3.7522 -99.347 -41.2492 61.5254 -44.5557 -5.43225 41.6008 1.08137 -4.22136 -80.8408 28.8404 1.70652 2.05728 11.0871 4.04573 -1.59401 12.9169 4.5753 1.38611 
-81.4694 90.4372 -45.021 56.6176 -56.0671 65.8631 -161.673 46.4074 84.6405 -46.2508 17.2695 -7.69531 60.2814 6.13906 16.5356 58.0306 26.6779 -13.6497 177.436 14.6015 93.7827 -77.3494 10.2058 -4.65266 38.3562 0.527936 1.13943 31.2052 -0.599885 17.946 0.488668 8.08073 -89.3396 10.7051 1.27751 1.19627 -0.965745 1.32892 1.13888 -23.4992 0.858968 1.52487 -3.4866 0.858962 1.52486 82.1243 -47.2954 -113.754 33.3499 -11.8031 24.5453 -12.38 3.00191 -88.0307 -21.4957 -1.14521 1.21822 -100.382 -42.5548 60.4637 -38.6572 -5.52769 35.8258 2.65078 -4.2602 -86.7237 33.9806 2.1263 2.39905 7.42144 4.43217 -3.5575 16.7268 5.47894 1.8508 
-75.1657 88.4913 -37.6165 59.3685 -54.3417 66.5351 -161.089 40.2657 81.8735 -50.9194 15.5096 -7.61754 64.4173 13.3843 21.6968 62.0228 27.252 -21.0553 174.59 29.0867 95.1448 -95.6075 16.5008 -5.23916 38.2631 -2.05509 -1.22916 34.7169 0.169557 17.0732 0.0518904 8.4401 -88.952 9.98365 0.579764 2.03223 -1.6887 0.668628 2.00474 -24.2112 -0.0576663 2.11248 -4.19855 -0.0576533 2.11249 79.7926 -49.5267 -116.389 34.1335 -12.2192 28.8316 -6.83541 -0.91294 -75.4542 -21.8862 -1.33994 2.03698 -101.08 -42.7909 59.4828 -31.8947 -6.0365 28.3212 10.6852 -3.4715 -94.7199 33.9142 3.56573 6.75433 6.59399 5.05662 -5.6441 19.9224 6.71309 2.5678 
-68.4017 87.0486 -30.6008 58.9781 -51.3887 66.5365 -163.035 34.6768 81.3884 -51.4174 15.3841 -6.82367 66.0939 18.0453 25.4796 65.9907 31.1883 -18.8039 170.376 46.1843 99.8185 -104.425 17.4393 -5.98142 39.1553 -2.84714 -1.94674 37.7038 0.810355 15.8462 -0.420766 8.38151 -88.993 10.1086 -0.379556 2.03207 -1.56395 -0.289767 2.04679 -24.0886 -0.972616 1.82418 -4.07596 -0.972625 1.82417 78.9102 -48.9148 -117.955 38.0594 -14.0543 35.8625 -4.35456 -3.15838 -65.4429 -21.6047 -1.1784 1.26141 -99.182 -41.0979 61.7245 -29.0182 -3.14081 18.857 16.149 -5.01856 -104.012 35.5131 4.79278 9.78292 8.78244 5.70918 -5.95906 17.8603 7.30109 1.84004 
-60.4524 87.1365 -22.8985 61.1696 -48.0579 71.4533 -167.386 26.1721 85.2563 -47.8136 18.1604 -4.80922 65.1154 17.9855 25.4784 70.9887 35.3591 -18.2694 163.244 56.0996 106.881 -101.101 16.692 -5.44966 45.491 -2.45039 -1.52035 42.0369 1.4853 12.395 -0.841087 8.26131 -89.5165 10.3578 -1.45421 1.08711 -1.31286 -1.40497 1.15005 -23.8532 -1.71369 0.599732 -3.84049 -1.71369 0.599731 78.2786 -49.9348 -118.454 41.3564 -15.0995 46.0132 -2.02265 -3.85883 -61.9551 -19.7993 -1.00737 0.805269 -96.5085 -38.1795 64.8471 -29.9865 -0.421291 13.8696 20.6372 -10.4013 -114.102 31.8547 4.60688 10.8047 10.1667 6.371 -6.92502 16.5857 8.44757 3.02596 
-51.515 88.54 -14.4592 64.2239 -48.9783 75.9149 -169.223 13.8354 90.0273 -39.6542 19.6727 -3.5415 60.8107 9.39526 16.3744 77.8995 40.9388 -18.0582 164.701 59.4281 107.209 -88.7363 12.8916 -3.15786 50.6776 -1.00714 -0.400062 41.3959 1.53188 15.4891 -1.04657 8.27813 -89.9437 10.3215 -2.05931 0.289768 -1.34792 -2.04455 0.380136 -23.8959 -2.05114 -0.342797 -3.88328 -2.05114 -0.342816 77.3683 -49.6646 -119.904 44.423 -14.5998 55.4527 -0.0738519 -2.92815 -62.3614 -18.932 -0.871403 0.166455 -95.3165 -37.369 66.5196 -30.8077 0.952726 12.7427 23.2536 -15.347 -121.748 34.1339 4.90897 10.7073 10.6712 7.60512 -6.81373 14.0909 9.93107 4.97159 
-42.2691 90.3274 -5.29152 66.2484 -48.9608 78.5793 -171.428 -0.476953 90.0485 -23.1796 24.6173 -1.12955 41.6801 -8.72688 1.46185 82.8703 43.0636 -21.2225 167.406 58.1796 103.98 -69.4687 7.99524 0.935307 54.3024 0.178043 0.410317 43.7789 1.93791 14.902 -1.30538 8.1564 -90.2942 10.5594 -2.73519 -0.337591 -1.10866 -2.7474 -0.2168 -23.6637 -2.5072 -1.14452 -3.65108 -2.5072 -1.14452 79.6346 -47.3064 -117.553 49.0838 -15.3929 60.8797 3.5449 -0.734902 -63.7039 -19.1588 -0.798995 -0.475786 -95.6847 -37.6725 66.0203 -31.0163 1.71954 14.4703 23.9661 -17.9981 -125.157 33.7827 4.83397 10.6116 9.90864 8.34239 -6.9502 9.43834 10.7121 6.96608 
-33.1205 91.8128 4.56935 63.9809 -48.6369 76.3359 -174.247 -6.46588 91.9383 -16.2697 28.2184 0.553362 30.4398 -15.4631 -2.48141 33.2621 5.09713 -8.63446 173.228 56.1724 98.6322 -46.8371 5.88306 4.48782 56.1903 0.632352 0.720219 49.9214 2.95109 13.2121 -1.53589 7.75003 -90.4565 11.3678 -3.26892 -0.579409 -0.299158 -3.29126 -0.434822 -22.8612 -2.94356 -1.53584 -2.84851 -2.94355 -1.53583 80.3547 -45.7362 -117.118 51.5979 -15.996 63.9045 7.01972 1.3506 -65.9384 -18.9139 -0.61213 -1.71143 -96.0259 -37.9301 65.5509 -32.1533 1.73937 17.7708 21.9885 -15.8744 -123.256 34.4257 4.17822 8.43229 7.88893 8.69668 -6.20617 8.27174 10.8699 7.96929 
-24.7972 91.8983 14.1555 61.3061 -49.2493 70.8487 -176.013 -1.47833 87.8525 -32.3358 17.2026 0.869594 36.9104 -10.9066 1.54323 25.8574 -1.79454 -9.57203 177.812 55.2146 94.4413 -34.7977 6.68306 4.64811 54.7689 1.46315 1.37187 55.0597 3.89612 13.288 -1.49256 7.56208 -90.1651 11.7534 -3.04606 -0.0078327 0.085982 -3.04343 0.126356 -22.4759 -2.90274 -0.923711 -2.46329 -2.90275 -0.923723 79.9535 -47.6029 -116.942 48.978 -15.7924 61.5851 9.06617 2.5319 -67.4131 -20.1242 -0.592036 -2.19581 -96.4432 -37.5254 64.6882 -32.888 2.21976 19.6271 18.5838 -11.5361 -116.439 32.6125 4.1359 8.98529 9.49655 8.16844 -5.95988 8.04645 10.3265 7.79204 
-16.9702 91.1761 22.6509 65.0236 -51.6451 71.8727 -173.348 4.81371 87.6243 -53.5401 13.1855 -0.39344 36.8706 -11.1512 4.05075 28.742 1.06728 -10.7478 177.636 51.2206 95.056 -38.6765 3.59024 3.30777 54.7882 1.11218 1.08576 49.9327 2.82797 12.7808 -1.20757 8.00279 -90.0354 10.8715 -2.42061 0.155575 -0.797181 -2.41144 0.262015 -23.3497 -2.35541 -0.579534 -3.3371 -2.35541 -0.579543 79.9571 -49.5877 -116.122 43.619 -15.789 54.6993 13.0739 4.34487 -67.7415 -23.0737 -0.807027 -1.91068 -99.1206 -38.8477 60.8387 -32.1383 0.747745 21.4387 14.8437 -7.58485 -105.038 30.5405 3.23155 6.85106 9.40145 7.50272 -2.50025 9.43111 8.70097 5.59379 
